/* XPM */
static char * nt48x48_xpm[] = {
"48 48 4 1",
" 	c None",
".	c #FF6500",
"+	c #FF6600",
"@	c #FF6700",
"                                                ",
"                                                ",
"         ..+@+                             ++++ ",
"      .++++++++++                     +.++++++  ",
"     .+++++++++++++          .++++++++++++++++  ",
"     +++++++++++++++          ++++++++++++++++  ",
"    +++++++++++++++++           +++++++++++++@  ",
"      ++++++++++++++++.         +++++++++++++   ",
"        ++++++++++++++++         ++++++++++++   ",
"         ++++++ + .+++++          +++++++++++   ",
"          +++++     +++++          ++++++++++   ",
"          +++++   ++++++++         ++++++++++   ",
"           ++++++  ++++++++         +++++++++   ",
"           ++++++++++   ++++        ++++++++.   ",
"           ++++++++++   .++++        ++++++++   ",
"            +++   ++    ++++++       ++++++++   ",
"            +++    +    ++++++@      ++++++++   ",
"            +++        @   +++++     +++++++.   ",
"            ++++            +++++++@+++++++++   ",
"            ++++++  ++      ++++++++++++++++@   ",
"            +++++   @      .+++++++++++++++++   ",
"            .+++       .+++++++++++++++++++++   ",
"            @++     +    +++++@+++++++++++++@   ",
"            .++    .+    +++++ ++++++++++++++   ",
"            @++++++++    +++     ++++++++++++   ",
"            ++++++++++   ++++   +++++++++++++   ",
"            +++++++++++@+++++ + +++++++++++++   ",
"            ++++++++++++++++++++++++++++++++.   ",
"   +        +++++++++++++++++++++++++++++++++   ",
"  ++       ++++++++. ++++++++++++++++++++++++   ",
"  ++       +++++++++   .+++++++++++++++++++++   ",
" +++       +++++++++     ++++++++++++++++++++   ",
" +++      ++++++++++      +++++++++++++++++++   ",
" ++++    +++++++++++       ++++++++++++++++++   ",
" +++++++++++++++++++        +++++++++++++++++   ",
" +++++++++++++++++++         ++++++++++++++++   ",
" +++++++++++++++++++          +++++++++++++++   ",
" +++++++++++++++++++           ++++++++++++++   ",
" +++++++++++++++++++            +++++++++++++   ",
" ++++++++++++++++++@             ++++++++++++@  ",
"  +++++++++++++++++               ++++++++++++  ",
"  +++++++++++++++++                +++++++++++  ",
"   +++++++++++++++                   +++++++++  ",
"    +++++++++++++                     ++++++++  ",
"     +++++++++++                         .++.   ",
"       +++++++                                  ",
"                                                ",
"                                                "};
